<svg xmlns="http://www.w3.org/2000/svg" width="100" height="16" fill="none"><path fill="#4872FF" fill-rule="evenodd" d="m51.697.498-8.985-.4-5.238 6.542 3.703 8.77 9.035.57 5.135-7.389zm-8.9 7.11 6.514-2.846-.947 7.159zm.554-6.518 5.205 2.241L42.26 5.81zm-1.768 7.87 5.654 4.046-5.516 1.44zm9.004-4.303 3.856 3.906-4.88 3.624zm-6.796 10.477 4.769-1.258.843 1.619zm5.722-1.67 4.177-3.11-3.346 4.734zm1.385-10.167.818-1.668 2.202 4.737zM45.393.617l5.299.214-.925 1.698zm-7.16 5.68L41.943 1.6l-1.228 5.223zm-.163.913 2.496.528.1 5.616zm-23.282 4.123h-.756V4.242h.756zm-3.117 0h.757V6.338h-.757zm.064-6.726q-.128.118-.128.378 0 .255.128.383a.44.44 0 0 0 .319.123.45.45 0 0 0 .314-.123q.133-.128.133-.383t-.133-.378a.45.45 0 0 0-.314-.123.44.44 0 0 0-.319.123M0 4.67h1.882q1.326 0 1.919.397.592.396.592 1.253 0 .593-.332.98-.33.382-.962.497v.045q1.518.26 1.518 1.595 0 .893-.607 1.395-.6.501-1.686.501H0zm.775 2.853H2.05q.82 0 1.18-.255.36-.26.36-.87 0-.561-.4-.807-.402-.25-1.277-.25H.774zm0 .657v2.492h1.39q.806 0 1.212-.31.41-.315.41-.98 0-.62-.42-.91-.414-.292-1.266-.292zm5.874-1.842v3.24q0 .612.278.912t.87.3q.784 0 1.144-.427.365-.428.365-1.4V6.338h.757v4.995h-.625l-.11-.67h-.04q-.232.37-.647.565-.41.196-.94.196-.911 0-1.366-.433-.452-.432-.452-1.385V6.338zm11.744 4.435a3 3 0 0 1-.387.027q-.374 0-.588-.242-.214-.241-.214-.692v-2.94h1.449v-.588h-1.45V5.181h-.437l-.319 1.066-.715.315v.364h.715v2.972q0 1.526 1.45 1.526.19 0 .428-.04.24-.038.364-.096v-.58a3 3 0 0 1-.296.065m6.048-4.517q.984 0 1.526.675.547.67.547 1.9t-.551 1.914q-.547.68-1.522.68-.488 0-.893-.178a1.7 1.7 0 0 1-.675-.556h-.055l-.16.642h-.542V4.242h.757v1.723q0 .579-.036 1.039h.036q.528-.748 1.568-.748m-.11.634q-.774 0-1.116.446-.342.442-.342 1.495t.351 1.509q.351.45 1.126.45.696 0 1.039-.505.34-.51.341-1.463 0-.975-.341-1.454-.341-.478-1.058-.478m3.528-.552h-.812l2.015 5.023-.278.71q-.333.876-1.112.876-.31 0-.56-.055v.606q.336.077.683.077.62 0 1.043-.355.429-.351.748-1.194l2.146-5.688h-.81a293 293 0 0 0-1.24 3.464 13 13 0 0 0-.246.793h-.037q-.087-.433-.447-1.408zm32.472 1.24h-.296V4.92h-.8v6.238h.8V8.236h.272l2.516 3.076.611-.512-2.421-2.934 2.062-2.623-.607-.477zm6.95-2.658h-.796v6.238h4.052v-.718h-3.256zm6.203 0h3.876v.722h-3.076v1.866h2.54v.716h-2.539v2.216h3.076v.718h-3.877zm9.168 0h-2.111l.022 6.237h.789v-2.67h1.156l1.577 2.824.688-.418-1.525-2.524a1.85 1.85 0 0 0 1.261-1.75c0-1.206-.82-1.699-1.857-1.699m1.026 1.7c0 .705-.501 1.15-1.29 1.15h-1.046V5.643h1.289a.93.93 0 0 1 1.047.978m8.045 1.427c0 .5-.036 3.217-2.204 3.217-1.005 0-2.207-.718-2.207-3.217s1.182-3.233 2.207-3.233 2.204.717 2.204 3.233m-3.576 0c0 .906.165 2.464 1.371 2.464 1.207 0 1.369-1.577 1.369-2.464s-.165-2.479-1.369-2.479-1.391 1.558-1.391 2.479zm8.563 2.467c-.836 0-1.203-.566-1.36-1.332l-.708.234c.19 1.11.927 1.852 2.074 1.852 1.148 0 1.974-.67 1.974-1.852a1.58 1.58 0 0 0-.86-1.463l-1.32-.584c-.478-.216-.836-.408-.836-.97 0-.561.501-.826 1.013-.826.678 0 1.001.434 1.143 1.041l.765-.225c-.252-.98-.86-1.576-1.896-1.576-.978 0-1.826.587-1.826 1.64s.694 1.345 1.492 1.68l.324.138.107.043c.556.225 1.096.444 1.096 1.146 0 .695-.527 1.053-1.182 1.053" clip-rule="evenodd"></path></svg>