<svg width="100" height="16" viewBox="0 0 100 16" fill="none" xmlns="http://www.w3.org/2000/svg">
<path fill-rule="evenodd" clip-rule="evenodd" d="M51.6972 0.498823L42.7118 0.0976562L37.4737 6.64025L41.1774 15.4104L50.2123 15.9809L55.3472 8.59146L51.6972 0.498823ZM42.7963 7.60874L49.3108 4.76294L48.3644 11.9211L42.7963 7.60874ZM43.3512 1.09002L48.5563 3.33178L42.2592 5.81038L43.3512 1.09002ZM41.5831 8.96004L47.2366 13.0061L41.7208 14.446L41.5831 8.96004ZM50.5873 4.65783L54.4429 8.56347L49.5638 12.1877L50.5873 4.65783ZM43.7914 15.1341L48.5599 13.8759L49.4026 15.4953L43.7914 15.1341ZM49.5128 13.4647L53.6897 10.3545L50.3441 15.0886L49.5128 13.4647ZM50.8976 3.29781L51.716 1.6298L53.9183 6.36669L50.8976 3.29781ZM45.3928 0.616786L50.692 0.831598L49.7666 2.5299L45.3928 0.616786ZM38.2324 6.29738L41.9443 1.60134L40.7161 6.82431L38.2324 6.29738ZM38.0695 7.21033L40.566 7.73818L40.6651 13.3541L38.0695 7.21033ZM14.7884 11.3337H14.0319V4.24251H14.7884V11.3337ZM11.6712 11.3337H12.4277V6.33887H11.6712V11.3337ZM11.735 4.6071C11.65 4.68609 11.6074 4.81217 11.6074 4.98535C11.6074 5.15549 11.65 5.2831 11.735 5.36816C11.8201 5.4502 11.9264 5.49121 12.054 5.49121C12.1756 5.49121 12.2804 5.4502 12.3685 5.36816C12.4566 5.2831 12.5006 5.15549 12.5006 4.98535C12.5006 4.81521 12.4566 4.68913 12.3685 4.6071C12.2804 4.52507 12.1756 4.48405 12.054 4.48405C11.9264 4.48405 11.8201 4.52507 11.735 4.6071ZM0 4.6709H1.88216C2.76628 4.6709 3.40582 4.80306 3.80078 5.06738C4.19575 5.33171 4.39323 5.74946 4.39323 6.32064C4.39323 6.7156 4.28233 7.04221 4.06055 7.30046C3.8418 7.55566 3.52127 7.72125 3.09896 7.7972V7.84277C4.11068 8.01595 4.61654 8.54763 4.61654 9.43783C4.61654 10.0333 4.4145 10.4982 4.01042 10.8324C3.60937 11.1666 3.04731 11.3337 2.32422 11.3337H0V4.6709ZM0.77474 7.52376H2.05078C2.59766 7.52376 2.9911 7.43869 3.23112 7.26855C3.47114 7.09538 3.59115 6.80523 3.59115 6.39811C3.59115 6.02441 3.45746 5.75553 3.1901 5.59147C2.92274 5.42437 2.4974 5.34082 1.91406 5.34082H0.77474V7.52376ZM0.77474 8.18001V10.6729H2.16471C2.70247 10.6729 3.10655 10.5696 3.37695 10.363C3.65039 10.1533 3.78711 9.82671 3.78711 9.38314C3.78711 8.96994 3.64735 8.66612 3.36784 8.47168C3.09136 8.27724 2.66905 8.18001 2.10091 8.18001H0.77474ZM6.64909 6.33887V9.5791C6.64909 9.98622 6.74175 10.29 6.92708 10.4906C7.11241 10.6911 7.40256 10.7913 7.79753 10.7913C8.32009 10.7913 8.70139 10.6485 8.9414 10.363C9.18446 10.0774 9.30599 9.611 9.30599 8.96387V6.33887H10.0625V11.3337H9.43815L9.32877 10.6637H9.28776C9.13281 10.9098 8.9171 11.0982 8.64062 11.2288C8.36719 11.3595 8.05425 11.4248 7.70182 11.4248C7.09418 11.4248 6.63845 11.2805 6.33463 10.9919C6.03385 10.7032 5.88346 10.2414 5.88346 9.60645V6.33887H6.64909ZM18.3932 10.7731C18.2687 10.7913 18.1395 10.8005 18.0059 10.8005C17.7567 10.8005 17.5608 10.7199 17.418 10.5589C17.2752 10.3979 17.2038 10.167 17.2038 9.86621V6.92676H18.653V6.33887H17.2038V5.18132H16.7663L16.4473 6.24772L15.7318 6.56217V6.92676H16.4473V9.89811C16.4473 10.9159 16.9303 11.4248 17.8965 11.4248C18.0241 11.4248 18.1669 11.4111 18.3249 11.3838C18.4859 11.3595 18.6074 11.3276 18.6895 11.2881V10.7093C18.6165 10.7306 18.5178 10.7518 18.3932 10.7731ZM24.4408 6.25684C25.097 6.25684 25.6059 6.48166 25.9674 6.93132C26.332 7.37793 26.5143 8.01139 26.5143 8.83171C26.5143 9.65202 26.3305 10.29 25.9629 10.7458C25.5983 11.1985 25.0909 11.4248 24.4408 11.4248C24.1157 11.4248 23.8179 11.3656 23.5475 11.2471C23.2802 11.1255 23.0553 10.9402 22.873 10.6911H22.8184L22.6589 11.3337H22.1165V4.24251H22.873V5.96517C22.873 6.35102 22.8609 6.69737 22.8366 7.00423H22.873C23.2255 6.50597 23.748 6.25684 24.4408 6.25684ZM24.3314 6.8903C23.8149 6.8903 23.4427 7.03917 23.2148 7.33691C22.987 7.63162 22.873 8.12988 22.873 8.83171C22.873 9.53353 22.99 10.0363 23.224 10.3402C23.4579 10.641 23.8331 10.7913 24.3496 10.7913C24.8144 10.7913 25.1608 10.6227 25.3887 10.2855C25.6165 9.9452 25.7305 9.45757 25.7305 8.82259C25.7305 8.17242 25.6165 7.68783 25.3887 7.36882C25.1608 7.04981 24.8084 6.8903 24.3314 6.8903ZM27.8587 6.33887H27.0475L29.0618 11.361L28.7839 12.0719C28.5621 12.6553 28.1914 12.9469 27.6719 12.9469C27.4653 12.9469 27.2784 12.9287 27.1113 12.8923V13.4984C27.3361 13.55 27.564 13.5758 27.7949 13.5758C28.2081 13.5758 28.556 13.4574 28.8385 13.2204C29.1241 12.9864 29.3733 12.5884 29.5859 12.0264L31.7324 6.33887H30.9212C30.2224 8.27116 29.8092 9.42567 29.6816 9.80241C29.5571 10.1761 29.475 10.4404 29.4355 10.5954H29.3991C29.3414 10.3067 29.1925 9.83735 28.9525 9.18718L27.8587 6.33887ZM60.3307 7.57798H60.0351V4.92037H59.2351V11.1586H60.0351V8.23665H60.3073L62.8226 11.312L63.434 10.8002L61.0128 7.86669L63.0751 5.24396L62.4678 4.7666L60.3307 7.57798ZM67.2808 4.92057H66.4854V11.1584H70.5375V10.4405H67.2808V4.92057ZM73.4838 4.92057H77.3596V5.64212H74.2843V7.50888H76.8244V8.22492H74.2852V10.4405H77.3605V11.1584H73.4838V4.92057ZM82.6521 4.92057H80.5407L80.5632 11.1579H81.3518V8.48839H82.5076L84.0847 11.3117L84.7732 10.8935L83.2475 8.36905C83.6142 8.24553 83.933 8.01035 84.1593 7.69649C84.3856 7.38262 84.5079 7.00581 84.5093 6.61888C84.5093 5.41354 83.689 4.92057 82.6521 4.92057ZM83.6775 6.62025C83.6775 7.32574 83.1768 7.77143 82.3882 7.77143H81.3417V5.64258H82.6306C82.6885 5.63485 82.7471 5.63285 82.8055 5.63661C83.0515 5.65151 83.2816 5.76348 83.4451 5.94792C83.6086 6.13237 83.6922 6.37419 83.6775 6.62025ZM91.7226 8.0472C91.7226 8.54797 91.6872 11.2643 89.5194 11.2643C88.5142 11.2643 87.3116 10.5469 87.3116 8.0472C87.3116 5.54748 88.4944 4.81445 89.5194 4.81445C90.5443 4.81445 91.7226 5.53187 91.7226 8.0472ZM88.1465 8.0472C88.1465 8.95372 88.3122 10.5111 89.5184 10.5111C90.7247 10.5111 90.8867 8.93398 90.8867 8.0472C90.8867 7.16041 90.7215 5.56859 89.5184 5.56859C88.3154 5.56859 88.1268 7.1269 88.1268 8.0472H88.1465ZM96.7101 10.5139C95.8743 10.5139 95.5075 9.94799 95.3496 9.18284L94.6423 9.41601C94.8314 10.5273 95.5686 11.269 96.7161 11.269C97.8636 11.269 98.6898 10.5989 98.6898 9.41601C98.7007 9.11561 98.6256 8.81833 98.4733 8.55917C98.321 8.30001 98.0978 8.08976 97.8301 7.95317L96.5095 7.36978C96.0317 7.15314 95.6737 6.96173 95.6737 6.39992C95.6737 5.8381 96.1754 5.57371 96.6872 5.57371C97.3651 5.57371 97.6882 6.00747 97.8301 6.61473L98.5948 6.38982C98.3428 5.40985 97.7355 4.81315 96.6986 4.81315C95.7205 4.81315 94.8732 5.40021 94.8732 6.45316C94.8732 7.50642 95.5668 7.79825 96.3655 8.13429L96.3655 8.13432C96.4558 8.17228 96.5474 8.21081 96.6394 8.25107C96.6559 8.2579 96.6723 8.26468 96.6888 8.27143C96.7245 8.28603 96.7602 8.30047 96.7959 8.31488C97.3523 8.53974 97.8925 8.75807 97.8925 9.46099C97.8925 10.1559 97.3646 10.5139 96.7101 10.5139Z" fill="black"/>
</svg>
