<svg width="124" height="40" viewBox="0 0 124 40" fill="none" xmlns="http://www.w3.org/2000/svg">
<g clip-path="url(#clip0_25274_11481)">
<path d="M35.7869 12.4806V19.2268L32.7445 20.9134L35.7869 22.5999V29.3461L30.0526 32.7192L23.5225 28.9113V33.3938L17.6802 36.7669L11.8379 33.3938V26.6476L15.5483 24.6238L11.8379 22.5999V15.8537L14.8737 14.1672L11.8379 12.4806V5.73442L17.6802 2.36133L35.7869 12.4806ZM29.7153 13.4925L31.1601 14.2146L17.0636 22.3285L16.7928 22.484V29.8962L13.9257 31.5788C13.6686 31.7297 13.5824 32.0609 13.7333 32.318C13.8842 32.5749 14.2154 32.6612 14.4725 32.5104L17.6058 30.671L17.8726 30.5148V23.1078L31.7392 15.127V16.5283L35.7869 12.4806L29.7153 13.4925Z" fill="#8DA8FF"/>
<path d="M30.0526 25.973L35.7869 22.5999V29.3461L30.0526 32.7191L23.6437 29.0087V33.3938L17.5722 36.7669L11.8379 33.3938V26.6476L16.7928 29.5621V29.8962L13.9257 31.5788C13.6686 31.7296 13.5824 32.0609 13.7333 32.3179C13.8842 32.5749 14.2154 32.6611 14.4725 32.5103L17.6058 30.6709L17.8726 30.5148V29.8566L21.2826 27.9968L17.8726 26.0481V23.1078L21.3214 21.1222L30.0526 25.973ZM20.2206 20.5108L17.0636 22.3284L16.7928 22.4839V25.4308L11.8379 22.5999V15.8537L20.2206 20.5108ZM35.7869 19.2268L29.7153 22.5999L24.1892 19.4718L31.7392 15.127V16.5283L35.7869 12.4806V19.2268ZM29.0078 15.4531L23.0982 18.8545L11.8379 12.4806V5.73438L29.0078 15.4531Z" fill="#4872FF"/>
<path d="M18.9506 21.4115L18.4756 21.6608V20.892H18.9506V21.4115ZM18.4884 19.1012L18.8303 19.2954L18.9506 19.3636V20.2705H18.4756V19.6396L18.2539 19.5139L18.0474 19.3968L18.2819 18.9841L18.4884 19.1012ZM16.7786 18.1307L17.4624 18.5189L17.6689 18.6361L17.4344 19.0488L17.2279 18.9316L16.5441 18.5434L16.3376 18.4262L16.5721 18.0135L16.7786 18.1307ZM15.5784 16.4953L14.3752 17.0649V18.2039L11.9688 15.9258L15.5784 16.4953ZM15.0687 17.1603L15.7526 17.5484L15.9591 17.6657L15.7246 18.0784L15.5181 17.9611L14.8342 17.573L14.6277 17.4557L14.8623 17.043L15.0687 17.1603Z" fill="#E8EEFF"/>
<path d="M27.3043 16.7988H26.8056V15.9952H27.3043V16.7988ZM27.1806 14.0898L27.3043 14.1621V15.1089H26.8056V14.4485L26.2864 14.1458L26.5377 13.715L27.1806 14.0898ZM24.8295 12.7184L25.8997 13.3427L25.6484 13.7735L24.3627 13.0237L24.614 12.593L24.8295 12.7184ZM23.9763 12.2206L23.725 12.6514L23.5095 12.526L22.4393 11.9016L22.6906 11.4709L23.9763 12.2206ZM22.0526 11.0986L21.8013 11.5293L21.5858 11.4039L20.5156 10.7796L20.7669 10.3488L22.0526 11.0986ZM19.0587 9.35214L20.1289 9.97649L19.8776 10.4073L18.5919 9.6575L18.8432 9.22674L19.0587 9.35214ZM17.135 8.23007L18.2052 8.85441L17.9539 9.28518L16.6682 8.53542L16.9195 8.10466L17.135 8.23007ZM16.2817 7.73234L16.0304 8.1631L15.8149 8.0377L14.7447 7.41335L14.996 6.98258L16.2817 7.73234ZM15.6963 6.29103L14.4537 6.87958V8.05669L11.9688 5.82715L15.6963 6.29103Z" fill="#E8EEFF"/>
<path d="M31.7384 16.5282V15.1269L17.8718 23.1077V30.5147L17.605 30.6708L14.4717 32.5102C14.2146 32.661 13.8834 32.5749 13.7325 32.3178C13.5816 32.0608 13.6678 31.7295 13.9249 31.5787L16.792 29.8961V22.4838L17.0628 22.3283L31.1593 14.2145L29.7145 13.4924L35.7861 12.4805L31.7384 16.5282Z" fill="white"/>
</g>
<path d="M13.3994 0.00730518L35.4289 0.8737L35.6622 0.882953L35.7564 1.09651L44.6673 21.3109L44.752 21.503L44.632 21.6752L32.0084 39.8269L31.8881 40L31.6777 39.9866L9.52449 38.584L9.29389 38.5694L9.2038 38.3568L0.0866881 16.8635L0 16.6592L0.137824 16.4851L13.0916 0.148782L13.2097 0L13.3994 0.00730518ZM1.05438 16.5328L7.8594 18.1276C8.06049 18.1747 8.18528 18.3757 8.13821 18.5768C8.09109 18.778 7.88982 18.903 7.6887 18.8559L1.08823 17.3094L9.80209 37.8518L31.2406 39.2091L28.5713 34.5187C28.4691 34.3392 28.5318 34.1107 28.7113 34.0085C28.8908 33.9064 29.1193 33.9691 29.2214 34.1486L31.8425 38.7545L43.8978 21.4202L35.3812 2.1L32.8171 7.03124C32.7217 7.21447 32.4958 7.28578 32.3125 7.19049C32.1293 7.09518 32.058 6.8692 32.1533 6.68594L34.7992 1.5974L13.5596 0.762174L1.05438 16.5328Z" fill="#C6D3FF"/>
<path d="M105.001 17.1884C105.699 17.1884 106.272 17.3601 106.721 17.7032C106.964 17.8969 107.192 18.1793 107.402 18.5501L107.643 17.4292H109.022L107.302 25.5163C107.064 26.6455 106.71 27.5368 106.239 28.1899C105.359 29.3965 104.057 30 102.335 30C101.377 29.9999 100.615 29.7841 100.051 29.3524C99.4914 28.9261 99.2697 28.2562 99.386 27.343H100.906C100.895 27.7415 100.975 28.0488 101.147 28.2647C101.413 28.5967 101.909 28.7628 102.634 28.7628C103.78 28.7628 104.616 28.3587 105.143 27.5506C105.453 27.0746 105.73 26.2248 105.973 25.0016C105.58 25.4554 105.148 25.7931 104.677 26.0145C104.212 26.2359 103.633 26.3467 102.941 26.3467C101.978 26.3466 101.205 26.0061 100.624 25.3254C100.048 24.639 99.9287 23.5068 100.266 21.9294C100.582 20.4405 101.191 19.278 102.094 18.4421C103.002 17.6064 103.971 17.1885 105.001 17.1884ZM92.6421 17.1136C93.9819 17.1138 94.8656 17.5068 95.2919 18.2927C95.5576 18.7908 95.6242 19.3279 95.4913 19.9035H94.0792C94.1234 19.5659 94.068 19.2585 93.913 18.9818C93.6528 18.5889 93.0987 18.3924 92.2517 18.3923C91.687 18.3923 91.2354 18.5004 90.8977 18.7161C90.5654 18.932 90.3605 19.2171 90.283 19.5714C90.1999 19.9588 90.3245 20.2688 90.6568 20.5013C90.8506 20.6396 91.1527 20.7615 91.5622 20.8666L92.5009 21.1074C93.5196 21.3675 94.1872 21.6195 94.5028 21.863C95.0009 22.2449 95.1617 22.8458 94.9846 23.6648C94.8185 24.4562 94.3725 25.14 93.6472 25.7156C92.9274 26.2912 91.9524 26.5791 90.7232 26.5791C89.3999 26.5791 88.5248 26.2801 88.0983 25.6824C87.6774 25.0791 87.5418 24.3345 87.6913 23.4489H89.1283C89.0674 23.9471 89.1117 24.329 89.2613 24.5947C89.5327 25.0761 90.1336 25.3171 91.0638 25.3171C91.6174 25.317 92.13 25.198 92.6006 24.96C93.0766 24.7165 93.3676 24.3427 93.4728 23.8391C93.5558 23.4574 93.4475 23.1666 93.1488 22.9673C92.9606 22.8456 92.5643 22.7043 91.9609 22.5438L90.8395 22.2449C90.1199 22.0568 89.6046 21.8463 89.2945 21.6139C88.7352 21.2098 88.533 20.6508 88.6881 19.9367C88.8653 19.0954 89.3111 18.4144 90.0255 17.8941C90.7453 17.374 91.6178 17.1136 92.6421 17.1136ZM68.5751 17.0887C69.7214 17.0887 70.6075 17.4708 71.2333 18.2346C71.8646 18.9984 72.0224 20.1221 71.7068 21.6056C71.4022 23.0392 70.8013 24.2238 69.9042 25.1593C69.0071 26.0947 67.8247 26.5625 66.3572 26.5625C65.1335 26.5625 64.25 26.1501 63.7074 25.3254C63.1647 24.4951 63.0401 23.3824 63.3336 21.9875C63.6548 20.4931 64.2889 19.3029 65.2358 18.4172C66.1827 17.5316 67.296 17.0888 68.5751 17.0887ZM83.812 17.1469C84.4433 17.1469 85.0249 17.2963 85.5565 17.5952C86.088 17.8886 86.4564 18.2706 86.6612 18.741C86.8661 19.1894 86.9548 19.7125 86.9271 20.3103C86.9326 20.7199 86.8385 21.3731 86.6446 22.2698H80.1238C79.9577 23.1721 80.0159 23.8972 80.2983 24.4453C80.5863 24.9877 81.1484 25.259 81.9846 25.259C82.7653 25.2589 83.441 25.0015 84.0114 24.4868C84.3436 24.1879 84.6067 23.8419 84.8005 23.4489H86.2708C86.1601 23.7754 85.9524 24.1408 85.6478 24.5449C85.3488 24.9434 85.0359 25.27 84.7092 25.5246C84.161 25.9674 83.5351 26.2664 82.8318 26.4214C82.4498 26.5099 82.0316 26.5542 81.5775 26.5542C80.47 26.5542 79.6171 26.1529 79.0191 25.3503C78.421 24.5421 78.277 23.4129 78.5871 21.9626C78.8917 20.5345 79.5258 19.3748 80.4893 18.4837C81.4529 17.5925 82.5605 17.1469 83.812 17.1469ZM122.58 17.3461H124L123.742 18.5667H122.322L121.084 24.3705C121.018 24.6805 121.079 24.8881 121.267 24.9933C121.372 25.0541 121.561 25.0846 121.832 25.0846H122.065C122.148 25.0791 122.247 25.0707 122.364 25.0597L122.114 26.2387C121.932 26.2885 121.743 26.3245 121.55 26.3467C121.361 26.3688 121.159 26.3799 120.943 26.3799C120.245 26.3799 119.808 26.2027 119.631 25.8485C119.459 25.4887 119.434 25.0237 119.556 24.4536L120.81 18.5667H119.606L119.863 17.3461H121.068L121.599 14.8635H123.111L122.58 17.3461ZM63.7323 15.5361H56.9208L56.1399 19.2392H62.1291L61.8134 20.6923H55.8243L54.653 26.2387H53L55.5917 14.0415H64.0563L63.7323 15.5361ZM78.4708 17.1552C78.5373 17.1607 78.648 17.1718 78.8031 17.1884L78.4708 18.766C78.3822 18.7494 78.3019 18.7383 78.2299 18.7327C78.1579 18.7272 78.0776 18.7244 77.989 18.7244C77.2359 18.7244 76.6046 18.968 76.0951 19.4551C75.5911 19.9367 75.27 20.493 75.1315 21.124L74.0516 26.2387H72.5564L74.442 17.3461H75.8625L75.5385 18.8822C75.7157 18.5833 76.0757 18.2207 76.6184 17.7945C77.1667 17.3627 77.737 17.1469 78.3296 17.1469C78.3573 17.1469 78.4044 17.1496 78.4708 17.1552ZM97.6748 26.2387H96.1547L98.032 17.3876H99.5521L97.6748 26.2387ZM112.536 18.5501C112.99 18.1017 113.377 17.7862 113.698 17.6035C114.247 17.288 114.881 17.1303 115.601 17.1303C116.891 17.1303 117.669 17.5814 117.935 18.4837C118.079 18.9763 118.06 19.6599 117.877 20.5345L116.664 26.2387H115.127L116.315 20.6341C116.454 19.981 116.473 19.5022 116.373 19.1977C116.202 18.7106 115.742 18.467 114.994 18.467C114.374 18.467 113.768 18.6802 113.175 19.1064C112.583 19.5326 112.159 20.338 111.904 21.5226L110.907 26.2387H109.412L112.012 14H113.507L112.536 18.5501ZM68.2512 18.3923C67.3375 18.3924 66.5981 18.7411 66.0333 19.4385C65.474 20.1359 65.089 20.9774 64.8786 21.9626C64.6793 22.9091 64.7181 23.698 64.9949 24.329C65.2773 24.96 65.87 25.2755 66.7726 25.2756C67.7638 25.2756 68.5225 24.9018 69.0486 24.1546C69.5802 23.4018 69.943 22.566 70.1368 21.6471C70.314 20.8168 70.3251 20.1415 70.17 19.6212C69.9208 18.802 69.2812 18.3923 68.2512 18.3923ZM104.993 18.5086C103.941 18.5087 103.118 19.0013 102.526 19.9865C102.205 20.5123 101.956 21.2016 101.778 22.054C101.562 23.0557 101.601 23.8198 101.895 24.3456C102.194 24.8658 102.687 25.126 103.373 25.1261C104.447 25.1261 105.306 24.6416 105.948 23.6731C106.308 23.1251 106.566 22.4857 106.721 21.7551C106.959 20.6535 106.906 19.8371 106.563 19.3057C106.22 18.7744 105.696 18.5086 104.993 18.5086ZM83.4465 18.4504C82.7599 18.4504 82.1313 18.6996 81.5609 19.1977C80.9905 19.6904 80.6084 20.3186 80.4146 21.0825H85.3571C85.4346 20.4349 85.4041 19.9173 85.2657 19.5298C85.011 18.8103 84.4045 18.4505 83.4465 18.4504ZM99.901 15.7353H98.3809L98.7464 14.0415H100.266L99.901 15.7353Z" fill="#4872FF"/>
<defs>
<clipPath id="clip0_25274_11481">
<rect width="34.4056" height="34.4056" fill="white" transform="translate(6.61914 2.36133)"/>
</clipPath>
</defs>
</svg>
